<?xml version="1.0" standalone="no"?>
<!DOCTYPE svg PUBLIC "-//W3C//DTD SVG 20010904//EN"
 "http://www.w3.org/TR/2001/REC-SVG-20010904/DTD/svg10.dtd">
<svg version="1.0" xmlns="http://www.w3.org/2000/svg"
 width="289.000000pt" height="289.000000pt" viewBox="0 0 289.000000 289.000000"
 preserveAspectRatio="xMidYMid meet">
<metadata>
Created by potrace 1.14, written by Peter Selinger 2001-2017
</metadata>
<g transform="translate(0.000000,289.000000) scale(0.100000,-0.100000)"
fill="#000000" stroke="none">
<path d="M1277 2835 c-222 -42 -410 -147 -581 -325 -222 -231 -355 -529 -396
-885 -52 -460 105 -953 400 -1253 154 -156 311 -250 511 -304 121 -32 337 -32
458 0 491 133 841 594 911 1197 42 369 -52 768 -251 1069 -68 103 -220 260
-314 326 -101 69 -242 135 -345 160 -113 28 -290 34 -393 15z m425 -91 c175
-29 257 -68 213 -100 -12 -9 -35 -7 -104 11 -293 77 -597 53 -862 -66 -82 -37
-93 -39 -106 -26 -26 25 -7 46 71 82 243 111 511 144 788 99z m-85 -135 c236
-26 443 -111 590 -242 28 -24 57 -47 64 -49 11 -4 11 -10 2 -31 -16 -36 -43
-34 -79 4 -84 90 -259 184 -419 225 -134 35 -345 43 -489 20 -425 -70 -704
-342 -734 -715 -7 -87 -21 -111 -56 -98 -12 5 -16 19 -16 59 1 321 215 617
543 748 193 77 385 103 594 79z m-47 -179 c52 -5 122 -16 155 -25 135 -34 265
-124 333 -229 15 -22 29 -43 32 -46 4 -3 22 -34 42 -70 37 -65 84 -118 126
-139 12 -7 48 -15 80 -19 53 -6 57 -9 60 -34 4 -35 -27 -44 -99 -29 -72 16
-110 35 -151 79 -36 37 -138 194 -138 211 0 18 -103 122 -146 147 -112 66
-244 94 -439 94 -245 0 -333 -44 -484 -244 -142 -187 -281 -313 -319 -289 -30
19 -18 43 48 96 36 29 115 113 177 187 62 74 136 158 165 185 127 118 280 153
558 125z m-42 -360 c181 -23 254 -75 345 -247 63 -120 109 -176 174 -217 61
-37 174 -73 289 -91 140 -22 144 -23 144 -44 0 -35 -20 -39 -120 -26 -131 18
-211 40 -305 85 -104 50 -164 112 -237 250 -89 166 -141 202 -316 221 -177 19
-289 -14 -350 -104 -16 -23 -52 -81 -81 -129 -81 -136 -167 -212 -301 -267
-99 -40 -332 -81 -373 -65 -24 9 -21 43 6 53 12 4 54 11 92 15 98 10 215 40
290 76 97 47 160 111 240 245 39 65 87 135 108 157 81 84 206 111 395 88z m77
-179 c28 -12 71 -43 97 -68 73 -72 89 -120 104 -318 19 -236 56 -373 138 -510
61 -103 159 -207 259 -274 36 -25 47 -38 45 -54 -2 -12 -11 -23 -21 -25 -45
-9 -225 147 -304 263 -115 170 -164 330 -183 600 -11 154 -20 190 -63 247 -64
84 -185 117 -301 84 -79 -23 -155 -97 -186 -181 -20 -54 -22 -73 -17 -180 12
-271 106 -552 265 -790 74 -111 219 -263 325 -340 49 -36 67 -55 67 -72 0 -22
-9 -28 -39 -23 -29 4 -168 119 -258 213 -179 188 -303 414 -373 682 -42 160
-54 246 -54 370 1 89 5 121 23 167 42 107 118 182 224 220 70 25 183 20 252
-11z m-571 -563 c60 -89 64 -99 42 -118 -22 -17 -39 -3 -96 78 -47 69 -59 100
-43 115 19 20 45 0 97 -75z m888 25 c93 -227 224 -404 371 -501 43 -29 48 -65
10 -70 -54 -8 -253 187 -340 332 -56 95 -109 227 -100 251 10 25 46 18 59 -12z
m195 -85 c67 -79 173 -184 226 -225 33 -26 57 -52 57 -63 0 -21 -35 -36 -53
-23 -137 101 -297 268 -297 309 0 45 30 46 67 2z m-1601 -4 c49 -14 139 -49
199 -79 206 -102 320 -207 559 -515 99 -127 206 -252 283 -328 107 -107 122
-126 113 -143 -17 -30 -34 -23 -105 40 -93 82 -181 183 -354 405 -268 344
-413 459 -700 551 -113 37 -130 52 -99 83 15 15 0 17 104 -14z m1823 -23 c20
-15 51 -36 69 -45 41 -21 51 -45 27 -62 -15 -11 -24 -10 -59 8 -94 48 -128 85
-100 112 20 21 20 21 63 -13z m-1679 -193 c167 -93 287 -209 500 -483 85 -110
190 -237 233 -282 79 -85 88 -102 62 -123 -12 -10 -20 -9 -39 4 -37 24 -144
150 -314 367 -159 205 -284 336 -389 407 -62 42 -193 110 -253 130 -34 12 -41
45 -13 60 18 11 118 -27 213 -80z m-45 -150 c113 -72 284 -249 454 -467 79
-102 145 -191 148 -198 6 -16 -14 -43 -32 -43 -8 0 -82 89 -167 198 -181 233
-319 376 -440 455 -97 64 -105 72 -88 92 20 24 42 18 125 -37z m163 -355 c60
-67 69 -95 34 -108 -12 -4 -34 12 -74 55 -68 72 -77 113 -26 119 3 1 33 -29
66 -66z"/>
</g>
</svg>
